<svg xmlns="http://www.w3.org/2000/svg" id="Cuneiform_ho" width="1024" height="1024" viewBox="64 128 900 900"><style>:root #Cuneiform_ho{opacity:1;height:100%;width:auto}</style><path transform="translate(0, 900) scale(1,-1)" d="M100 465L100 465Q113 523 113 576L113 576Q113 632 100 681L100 681Q159 665 215 652Q271 639 335 629Q399 619 482 610.50Q565 602 678.50 593Q792 584 948 574L948 574L948 548Q800 544 686 538.50Q572 533 484.50 526Q397 519 329 510Q261 501 205.50 490Q150 479 100 465ZM100 204L100 204Q113 262 113 315L113 315Q113 371 100 420L100 420Q159 404 215 391Q271 378 335 368Q399 358 482 349.50Q565 341 678.50 332Q792 323 948 313L948 313L948 287Q800 283 686 277.50Q572 272 484.50 265Q397 258 329 249Q261 240 205.50 229Q150 218 100 204ZM100-57L100-57Q113 1 113 54L113 54Q113 110 100 159L100 159Q159 143 215 130Q271 117 335 107Q399 97 482 88.50Q565 80 678.50 71Q792 62 948 52L948 52L948 26Q800 22 686 16.50Q572 11 484.50 4Q397-3 329-12Q261-21 205.50-32Q150-43 100-57Z" fill="#DDD" fill-opacity="0.87"/></svg>
